<?xml version="1.0" encoding="UTF-8" standalone="no"?>
<!DOCTYPE svg PUBLIC "-//W3C//DTD SVG 1.1//EN"
 "http://www.w3.org/Graphics/SVG/1.1/DTD/svg11.dtd">
<!-- Generated by graphviz version 15.0.0 (20260523.1842)
 -->
<!-- Title: G Pages: 1 -->
<svg width="1375pt" height="66pt"
 viewBox="0.00 0.00 1375.00 66.00" xmlns="http://www.w3.org/2000/svg" xmlns:xlink="http://www.w3.org/1999/xlink">
<g id="graph0" class="graph" transform="scale(1 1) rotate(0) translate(4 62.4)">
<title>G</title>
<polygon fill="white" stroke="none" points="-4,4 -4,-62.4 1370.8,-62.4 1370.8,4 -4,4"/>
<!-- Browse -->
<g id="node1" class="node">
<title>Browse</title>
<path fill="#cfe2ff" stroke="black" d="M214.07,-50C214.07,-50 12,-50 12,-50 6,-50 0,-44 0,-38 0,-38 0,-20.4 0,-20.4 0,-14.4 6,-8.4 12,-8.4 12,-8.4 214.07,-8.4 214.07,-8.4 220.07,-8.4 226.07,-14.4 226.07,-20.4 226.07,-20.4 226.07,-38 226.07,-38 226.07,-44 220.07,-50 214.07,-50"/>
<text xml:space="preserve" text-anchor="middle" x="113.03" y="-33.4" font-family="Helvetica,sans-Serif" font-size="14.00">Browse Marketplace</text>
<text xml:space="preserve" text-anchor="middle" x="113.03" y="-16.6" font-family="Helvetica,sans-Serif" font-size="14.00">(GET /api/v1/marketplace/listings)</text>
</g>
<!-- Detail -->
<g id="node2" class="node">
<title>Detail</title>
<path fill="#cfe2ff" stroke="black" d="M495.81,-50C495.81,-50 275.07,-50 275.07,-50 269.07,-50 263.07,-44 263.07,-38 263.07,-38 263.07,-20.4 263.07,-20.4 263.07,-14.4 269.07,-8.4 275.07,-8.4 275.07,-8.4 495.81,-8.4 495.81,-8.4 501.81,-8.4 507.81,-14.4 507.81,-20.4 507.81,-20.4 507.81,-38 507.81,-38 507.81,-44 501.81,-50 495.81,-50"/>
<text xml:space="preserve" text-anchor="middle" x="385.44" y="-33.4" font-family="Helvetica,sans-Serif" font-size="14.00">Listing Detail</text>
<text xml:space="preserve" text-anchor="middle" x="385.44" y="-16.6" font-family="Helvetica,sans-Serif" font-size="14.00">(GET /api/v1/marketplace/listings/:id)</text>
</g>
<!-- Browse&#45;&gt;Detail -->
<g id="edge1" class="edge">
<title>Browse&#45;&gt;Detail</title>
<path fill="none" stroke="black" d="M226.36,-29.2C234.64,-29.2 243.04,-29.2 251.43,-29.2"/>
<polygon fill="black" stroke="black" points="251.33,-32.7 261.33,-29.2 251.33,-25.7 251.33,-32.7"/>
</g>
<!-- Checkout -->
<g id="node3" class="node">
<title>Checkout</title>
<path fill="#fff3cd" stroke="black" d="M671.74,-58.4C671.74,-58.4 556.81,-58.4 556.81,-58.4 550.81,-58.4 544.81,-52.4 544.81,-46.4 544.81,-46.4 544.81,-12 544.81,-12 544.81,-6 550.81,0 556.81,0 556.81,0 671.74,0 671.74,0 677.74,0 683.74,-6 683.74,-12 683.74,-12 683.74,-46.4 683.74,-46.4 683.74,-52.4 677.74,-58.4 671.74,-58.4"/>
<text xml:space="preserve" text-anchor="middle" x="614.27" y="-41.8" font-family="Helvetica,sans-Serif" font-size="14.00">Initiate Checkout</text>
<text xml:space="preserve" text-anchor="middle" x="614.27" y="-25" font-family="Helvetica,sans-Serif" font-size="14.00">(POST .../checkout)</text>
<text xml:space="preserve" text-anchor="middle" x="614.27" y="-8.2" font-family="Helvetica,sans-Serif" font-size="14.00">[Locks Listing]</text>
</g>
<!-- Detail&#45;&gt;Checkout -->
<g id="edge2" class="edge">
<title>Detail&#45;&gt;Checkout</title>
<path fill="none" stroke="black" d="M508.16,-29.2C516.59,-29.2 524.95,-29.2 533.07,-29.2"/>
<polygon fill="black" stroke="black" points="532.85,-32.7 542.85,-29.2 532.85,-25.7 532.85,-32.7"/>
</g>
<!-- Simulate -->
<g id="node4" class="node">
<title>Simulate</title>
<path fill="#cfe2ff" stroke="black" d="M902.12,-50C902.12,-50 732.74,-50 732.74,-50 726.74,-50 720.74,-44 720.74,-38 720.74,-38 720.74,-20.4 720.74,-20.4 720.74,-14.4 726.74,-8.4 732.74,-8.4 732.74,-8.4 902.12,-8.4 902.12,-8.4 908.12,-8.4 914.12,-14.4 914.12,-20.4 914.12,-20.4 914.12,-38 914.12,-38 914.12,-44 908.12,-50 902.12,-50"/>
<text xml:space="preserve" text-anchor="middle" x="817.43" y="-33.4" font-family="Helvetica,sans-Serif" font-size="14.00">Simulate Payment</text>
<text xml:space="preserve" text-anchor="middle" x="817.43" y="-16.6" font-family="Helvetica,sans-Serif" font-size="14.00">(POST .../simulate&#45;payment)</text>
</g>
<!-- Checkout&#45;&gt;Simulate -->
<g id="edge3" class="edge">
<title>Checkout&#45;&gt;Simulate</title>
<path fill="none" stroke="black" d="M684.22,-29.2C692.27,-29.2 700.63,-29.2 709.04,-29.2"/>
<polygon fill="black" stroke="black" points="709.03,-32.7 719.03,-29.2 709.03,-25.7 709.03,-32.7"/>
</g>
<!-- Transfer -->
<g id="node5" class="node">
<title>Transfer</title>
<path fill="#d1e7dd" stroke="black" d="M1157.08,-50C1157.08,-50 1042.15,-50 1042.15,-50 1036.15,-50 1030.15,-44 1030.15,-38 1030.15,-38 1030.15,-20.4 1030.15,-20.4 1030.15,-14.4 1036.15,-8.4 1042.15,-8.4 1042.15,-8.4 1157.08,-8.4 1157.08,-8.4 1163.08,-8.4 1169.08,-14.4 1169.08,-20.4 1169.08,-20.4 1169.08,-38 1169.08,-38 1169.08,-44 1163.08,-50 1157.08,-50"/>
<text xml:space="preserve" text-anchor="middle" x="1099.61" y="-33.4" font-family="Helvetica,sans-Serif" font-size="14.00">Ownership Transfer</text>
<text xml:space="preserve" text-anchor="middle" x="1099.61" y="-16.6" font-family="Helvetica,sans-Serif" font-size="14.00">(Atomic Update)</text>
</g>
<!-- Simulate&#45;&gt;Transfer -->
<g id="edge4" class="edge">
<title>Simulate&#45;&gt;Transfer</title>
<path fill="none" stroke="black" d="M914.46,-29.2C948.33,-29.2 986.02,-29.2 1018.44,-29.2"/>
<polygon fill="black" stroke="black" points="1018.16,-32.7 1028.16,-29.2 1018.16,-25.7 1018.16,-32.7"/>
<text xml:space="preserve" text-anchor="middle" x="972.13" y="-32.2" font-family="Helvetica,sans-Serif" font-size="10.00">Payment Success</text>
</g>
<!-- MyTickets -->
<g id="node6" class="node">
<title>MyTickets</title>
<path fill="#cfe2ff" stroke="black" d="M1354.8,-50C1354.8,-50 1218.08,-50 1218.08,-50 1212.08,-50 1206.08,-44 1206.08,-38 1206.08,-38 1206.08,-20.4 1206.08,-20.4 1206.08,-14.4 1212.08,-8.4 1218.08,-8.4 1218.08,-8.4 1354.8,-8.4 1354.8,-8.4 1360.8,-8.4 1366.8,-14.4 1366.8,-20.4 1366.8,-20.4 1366.8,-38 1366.8,-38 1366.8,-44 1360.8,-50 1354.8,-50"/>
<text xml:space="preserve" text-anchor="middle" x="1286.44" y="-33.4" font-family="Helvetica,sans-Serif" font-size="14.00">My Tickets</text>
<text xml:space="preserve" text-anchor="middle" x="1286.44" y="-16.6" font-family="Helvetica,sans-Serif" font-size="14.00">(Ticket Code Available)</text>
</g>
<!-- Transfer&#45;&gt;MyTickets -->
<g id="edge5" class="edge">
<title>Transfer&#45;&gt;MyTickets</title>
<path fill="none" stroke="black" d="M1169.44,-29.2C1177.55,-29.2 1185.93,-29.2 1194.29,-29.2"/>
<polygon fill="black" stroke="black" points="1194.14,-32.7 1204.14,-29.2 1194.14,-25.7 1194.14,-32.7"/>
</g>
</g>
</svg>
