<?xml version="1.0" encoding="UTF-8" standalone="no"?>
<!DOCTYPE svg PUBLIC "-//W3C//DTD SVG 1.1//EN"
 "http://www.w3.org/Graphics/SVG/1.1/DTD/svg11.dtd">
<!-- Generated by graphviz version 15.0.0 (20260523.1842)
 -->
<!-- Title: G Pages: 1 -->
<svg width="260pt" height="218pt"
 viewBox="0.00 0.00 260.00 218.00" xmlns="http://www.w3.org/2000/svg" xmlns:xlink="http://www.w3.org/1999/xlink">
<g id="graph0" class="graph" transform="scale(1 1) rotate(0) translate(4 213.8)">
<title>G</title>
<polygon fill="white" stroke="none" points="-4,4 -4,-213.8 255.73,-213.8 255.73,4 -4,4"/>
<!-- Pending -->
<g id="node1" class="node">
<title>Pending</title>
<path fill="#f8d7da" stroke="black" d="M207.14,-209.8C207.14,-209.8 43.2,-209.8 43.2,-209.8 37.2,-209.8 31.2,-203.8 31.2,-197.8 31.2,-197.8 31.2,-180.2 31.2,-180.2 31.2,-174.2 37.2,-168.2 43.2,-168.2 43.2,-168.2 207.14,-168.2 207.14,-168.2 213.14,-168.2 219.14,-174.2 219.14,-180.2 219.14,-180.2 219.14,-197.8 219.14,-197.8 219.14,-203.8 213.14,-209.8 207.14,-209.8"/>
<text xml:space="preserve" text-anchor="middle" x="125.17" y="-193.2" font-family="Helvetica,sans-Serif" font-size="14.00">Pending Listings List</text>
<text xml:space="preserve" text-anchor="middle" x="125.17" y="-176.4" font-family="Helvetica,sans-Serif" font-size="14.00">(GET /api/v1/admin/listings)</text>
</g>
<!-- Review -->
<g id="node2" class="node">
<title>Review</title>
<path fill="#f8d7da" stroke="black" d="M183.41,-131.2C183.41,-131.2 66.93,-131.2 66.93,-131.2 60.93,-131.2 54.93,-125.2 54.93,-119.2 54.93,-119.2 54.93,-101.6 54.93,-101.6 54.93,-95.6 60.93,-89.6 66.93,-89.6 66.93,-89.6 183.41,-89.6 183.41,-89.6 189.41,-89.6 195.41,-95.6 195.41,-101.6 195.41,-101.6 195.41,-119.2 195.41,-119.2 195.41,-125.2 189.41,-131.2 183.41,-131.2"/>
<text xml:space="preserve" text-anchor="middle" x="125.17" y="-114.6" font-family="Helvetica,sans-Serif" font-size="14.00">Review Ticket Proof</text>
<text xml:space="preserve" text-anchor="middle" x="125.17" y="-97.8" font-family="Helvetica,sans-Serif" font-size="14.00">(Inspect Details)</text>
</g>
<!-- Pending&#45;&gt;Review -->
<g id="edge1" class="edge">
<title>Pending&#45;&gt;Review</title>
<path fill="none" stroke="black" d="M125.17,-167.87C125.17,-160.28 125.17,-151.45 125.17,-143.06"/>
<polygon fill="black" stroke="black" points="128.67,-143.17 125.17,-133.17 121.67,-143.17 128.67,-143.17"/>
</g>
<!-- Approve -->
<g id="node3" class="node">
<title>Approve</title>
<path fill="#d1e7dd" stroke="black" d="M104.34,-41.6C104.34,-41.6 12,-41.6 12,-41.6 6,-41.6 0,-35.6 0,-29.6 0,-29.6 0,-12 0,-12 0,-6 6,0 12,0 12,0 104.34,0 104.34,0 110.34,0 116.34,-6 116.34,-12 116.34,-12 116.34,-29.6 116.34,-29.6 116.34,-35.6 110.34,-41.6 104.34,-41.6"/>
<text xml:space="preserve" text-anchor="middle" x="58.17" y="-25" font-family="Helvetica,sans-Serif" font-size="14.00">Approve Listing</text>
<text xml:space="preserve" text-anchor="middle" x="58.17" y="-8.2" font-family="Helvetica,sans-Serif" font-size="14.00">(POST .../verify)</text>
</g>
<!-- Review&#45;&gt;Approve -->
<g id="edge2" class="edge">
<title>Review&#45;&gt;Approve</title>
<path fill="none" stroke="black" d="M109.97,-89.52C101.2,-78.07 90.03,-63.46 80.31,-50.75"/>
<polygon fill="black" stroke="black" points="83.32,-48.92 74.46,-43.1 77.76,-53.17 83.32,-48.92"/>
<text xml:space="preserve" text-anchor="middle" x="121.52" y="-62.6" font-family="Helvetica,sans-Serif" font-size="10.00">Valid Ticket</text>
</g>
<!-- Reject -->
<g id="node4" class="node">
<title>Reject</title>
<path fill="#e2e3e5" stroke="black" d="M239.73,-41.6C239.73,-41.6 146.61,-41.6 146.61,-41.6 140.61,-41.6 134.61,-35.6 134.61,-29.6 134.61,-29.6 134.61,-12 134.61,-12 134.61,-6 140.61,0 146.61,0 146.61,0 239.73,0 239.73,0 245.73,0 251.73,-6 251.73,-12 251.73,-12 251.73,-29.6 251.73,-29.6 251.73,-35.6 245.73,-41.6 239.73,-41.6"/>
<text xml:space="preserve" text-anchor="middle" x="193.17" y="-25" font-family="Helvetica,sans-Serif" font-size="14.00">Reject Listing</text>
<text xml:space="preserve" text-anchor="middle" x="193.17" y="-8.2" font-family="Helvetica,sans-Serif" font-size="14.00">(POST .../reject)</text>
</g>
<!-- Review&#45;&gt;Reject -->
<g id="edge3" class="edge">
<title>Review&#45;&gt;Reject</title>
<path fill="none" stroke="black" d="M140.6,-89.52C149.49,-78.07 160.83,-63.46 170.69,-50.75"/>
<polygon fill="black" stroke="black" points="173.27,-53.14 176.64,-43.1 167.74,-48.85 173.27,-53.14"/>
<text xml:space="preserve" text-anchor="middle" x="204.92" y="-62.6" font-family="Helvetica,sans-Serif" font-size="10.00">Invalid/Fake Ticket</text>
</g>
</g>
</svg>
